<svg xmlns="http://www.w3.org/2000/svg" version="1.1" xmlns:xlink="http://www.w3.org/1999/xlink" xmlns:svgjs="http://svgjs.com/svgjs" width="1440" height="560" preserveAspectRatio="none" viewBox="0 0 1440 560"><g mask="url(&quot;#SvgjsMask1002&quot;)" fill="none"><rect width="1440" height="560" x="0" y="0" fill="rgba(141, 141, 141, 1)"></rect><path d="M1119.23 298.6L1119.23 302.33L1152.91 302.33L1152.91 298.6zM1146.31 300.47 a6.6 6.6 0 1 0 13.2 0 a6.6 6.6 0 1 0 -13.2 0zM1114.52 325.98L1113.1 329.42L1124.74 334.25L1126.16 330.8zM1118.85 332.52 a6.6 6.6 0 1 0 13.2 0 a6.6 6.6 0 1 0 -13.2 0zM1099.7 349.47L1097.06 352.11L1111.48 366.53L1114.12 363.89zM1106.2 365.21 a6.6 6.6 0 1 0 13.2 0 a6.6 6.6 0 1 0 -13.2 0zM1077.01 365.51L1073.57 366.93L1079.56 381.39L1083 379.96zM1074.68 380.68 a6.6 6.6 0 1 0 13.2 0 a6.6 6.6 0 1 0 -13.2 0zM1049.92 371.64L1046.19 371.64L1046.19 387.89L1049.92 387.89zM1041.46 387.89 a6.6 6.6 0 1 0 13.2 0 a6.6 6.6 0 1 0 -13.2 0zM1022.54 366.93L1019.1 365.51L1006.16 396.75L1009.6 398.18zM1001.28 397.46 a6.6 6.6 0 1 0 13.2 0 a6.6 6.6 0 1 0 -13.2 0zM999.05 352.11L996.42 349.47L977.85 368.04L980.48 370.68zM972.56 369.36 a6.6 6.6 0 1 0 13.2 0 a6.6 6.6 0 1 0 -13.2 0zM983.02 329.42L981.59 325.98L965.86 332.5L967.29 335.94zM959.97 334.22 a6.6 6.6 0 1 0 13.2 0 a6.6 6.6 0 1 0 -13.2 0zM976.89 302.33L976.89 298.6L945.29 298.6L945.29 302.33zM938.69 300.47 a6.6 6.6 0 1 0 13.2 0 a6.6 6.6 0 1 0 -13.2 0zM981.59 274.95L983.02 271.51L963.84 263.57L962.41 267.01zM956.53 265.29 a6.6 6.6 0 1 0 13.2 0 a6.6 6.6 0 1 0 -13.2 0zM996.42 251.46L999.05 248.82L974.56 224.33L971.92 226.97zM966.64 225.65 a6.6 6.6 0 1 0 13.2 0 a6.6 6.6 0 1 0 -13.2 0zM1019.1 235.43L1022.54 234L1010.52 204.97L1007.08 206.4zM1002.2 205.69 a6.6 6.6 0 1 0 13.2 0 a6.6 6.6 0 1 0 -13.2 0zM1046.19 229.3L1049.92 229.3L1049.92 199.36L1046.19 199.36zM1041.46 199.36 a6.6 6.6 0 1 0 13.2 0 a6.6 6.6 0 1 0 -13.2 0zM1073.57 234L1077.01 235.43L1086.91 211.54L1083.47 210.11zM1078.59 210.82 a6.6 6.6 0 1 0 13.2 0 a6.6 6.6 0 1 0 -13.2 0zM1097.06 248.82L1099.7 251.46L1114.44 236.72L1111.81 234.08zM1106.52 235.4 a6.6 6.6 0 1 0 13.2 0 a6.6 6.6 0 1 0 -13.2 0zM1113.1 271.51L1114.52 274.95L1124.81 270.69L1123.38 267.25zM1117.49 268.97 a6.6 6.6 0 1 0 13.2 0 a6.6 6.6 0 1 0 -13.2 0zM976.87 300.47 a71.19 71.19 0 1 0 142.38 0 a71.19 71.19 0 1 0 -142.38 0z" fill="rgba(72, 219, 117, 1)"></path><path d="M1095.76 353.32 A70.1936 70.1936 0 0 1 978.47 315.5M978.47 315.5 A142.3872 142.3872 0 0 0 1095.76 353.32" fill="#26c356" fill-rule="nonzero"></path><path d="M1073.97 344.84 a12.1 12.1 0 1 0 24.2 0 a12.1 12.1 0 1 0 -24.2 0zM1002.06 289.15 a14.24 14.24 0 1 0 28.48 0 a14.24 14.24 0 1 0 -28.48 0zM1054.51 310 a12.81 12.81 0 1 0 25.62 0 a12.81 12.81 0 1 0 -25.62 0zM1079.31 243.23 a3.56 3.56 0 1 0 7.12 0 a3.56 3.56 0 1 0 -7.12 0zM1008.33 243.79 a4.27 4.27 0 1 0 8.54 0 a4.27 4.27 0 1 0 -8.54 0zM1100.46 304.45 a9.26 9.26 0 1 0 18.52 0 a9.26 9.26 0 1 0 -18.52 0zM1005.66 341.83 a14.24 14.24 0 1 0 28.48 0 a14.24 14.24 0 1 0 -28.48 0zM1045.69 281.83 a4.98 4.98 0 1 0 9.96 0 a4.98 4.98 0 1 0 -9.96 0zM1080.62 273.7 a11.39 11.39 0 1 0 22.78 0 a11.39 11.39 0 1 0 -22.78 0zM1054.8 259.68 a3.56 3.56 0 1 0 7.12 0 a3.56 3.56 0 1 0 -7.12 0z" fill="#26c356" fill-rule="nonzero"></path><path d="M769.19 281.33L769.19 285.05L793.82 285.05L793.82 281.33zM787.22 283.19 a6.6 6.6 0 1 0 13.2 0 a6.6 6.6 0 1 0 -13.2 0zM764.48 308.7L763.06 312.15L779.68 319.03L781.11 315.59zM773.79 317.31 a6.6 6.6 0 1 0 13.2 0 a6.6 6.6 0 1 0 -13.2 0zM749.66 332.2L747.03 334.83L764.35 352.16L766.99 349.52zM759.07 350.84 a6.6 6.6 0 1 0 13.2 0 a6.6 6.6 0 1 0 -13.2 0zM726.98 348.23L723.53 349.65L733.87 374.61L737.31 373.18zM728.99 373.9 a6.6 6.6 0 1 0 13.2 0 a6.6 6.6 0 1 0 -13.2 0zM699.88 354.36L696.16 354.36L696.16 381.25L699.88 381.25zM691.42 381.25 a6.6 6.6 0 1 0 13.2 0 a6.6 6.6 0 1 0 -13.2 0zM672.51 349.65L669.06 348.23L663.48 361.7L666.93 363.13zM658.61 362.41 a6.6 6.6 0 1 0 13.2 0 a6.6 6.6 0 1 0 -13.2 0zM649.01 334.83L646.38 332.2L623.64 354.94L626.27 357.57zM618.36 356.25 a6.6 6.6 0 1 0 13.2 0 a6.6 6.6 0 1 0 -13.2 0zM632.98 312.15L631.55 308.7L619.1 313.86L620.53 317.31zM613.21 315.58 a6.6 6.6 0 1 0 13.2 0 a6.6 6.6 0 1 0 -13.2 0zM626.85 285.05L626.85 281.33L597.29 281.33L597.29 285.05zM590.69 283.19 a6.6 6.6 0 1 0 13.2 0 a6.6 6.6 0 1 0 -13.2 0zM631.55 257.68L632.98 254.23L619.55 248.67L618.12 252.11zM612.23 250.39 a6.6 6.6 0 1 0 13.2 0 a6.6 6.6 0 1 0 -13.2 0zM646.38 234.18L649.01 231.55L639.6 222.14L636.97 224.77zM631.68 223.45 a6.6 6.6 0 1 0 13.2 0 a6.6 6.6 0 1 0 -13.2 0zM669.06 218.15L672.51 216.73L667.46 204.55L664.02 205.97zM659.14 205.26 a6.6 6.6 0 1 0 13.2 0 a6.6 6.6 0 1 0 -13.2 0zM696.16 212.02L699.88 212.02L699.88 196.08L696.16 196.08zM691.42 196.08 a6.6 6.6 0 1 0 13.2 0 a6.6 6.6 0 1 0 -13.2 0zM723.53 216.73L726.98 218.15L738.45 190.45L735.01 189.03zM730.13 189.74 a6.6 6.6 0 1 0 13.2 0 a6.6 6.6 0 1 0 -13.2 0zM747.03 231.55L749.66 234.18L757.5 226.35L754.86 223.71zM749.58 225.03 a6.6 6.6 0 1 0 13.2 0 a6.6 6.6 0 1 0 -13.2 0zM763.06 254.23L764.48 257.68L776.22 252.82L774.79 249.37zM768.9 251.09 a6.6 6.6 0 1 0 13.2 0 a6.6 6.6 0 1 0 -13.2 0zM626.83 283.19 a71.19 71.19 0 1 0 142.38 0 a71.19 71.19 0 1 0 -142.38 0z" fill="rgba(72, 219, 117, 1)"></path><path d="M718.1 214.89 A70.1936 70.1936 0 0 1 747.24 334.63M747.24 334.63 A142.3872 142.3872 0 0 0 718.1 214.89" fill="#26c356" fill-rule="nonzero"></path><path d="M682.92 284.07 a14.24 14.24 0 1 0 28.48 0 a14.24 14.24 0 1 0 -28.48 0zM648.13 234.11 a2.85 2.85 0 1 0 5.7 0 a2.85 2.85 0 1 0 -5.7 0zM750.53 320.53 a3.56 3.56 0 1 0 7.12 0 a3.56 3.56 0 1 0 -7.12 0zM644.91 327.52 a5.7 5.7 0 1 0 11.4 0 a5.7 5.7 0 1 0 -11.4 0zM725.39 225.93 a4.98 4.98 0 1 0 9.96 0 a4.98 4.98 0 1 0 -9.96 0zM750.82 271.68 a8.54 8.54 0 1 0 17.08 0 a8.54 8.54 0 1 0 -17.08 0zM724.73 291.72 a2.85 2.85 0 1 0 5.7 0 a2.85 2.85 0 1 0 -5.7 0zM682.38 335.53 a14.24 14.24 0 1 0 28.48 0 a14.24 14.24 0 1 0 -28.48 0zM742.57 242.16 a2.85 2.85 0 1 0 5.7 0 a2.85 2.85 0 1 0 -5.7 0zM691.4 216.04 a3.56 3.56 0 1 0 7.12 0 a3.56 3.56 0 1 0 -7.12 0z" fill="#26c356" fill-rule="nonzero"></path><path d="M97.8 376.32L97.8 378.19L103.85 378.19L103.85 376.32zM100.55 377.25 a3.3 3.3 0 1 0 6.6 0 a3.3 3.3 0 1 0 -6.6 0zM95.45 390.01L94.73 391.73L104.04 395.59L104.76 393.87zM101.1 394.73 a3.3 3.3 0 1 0 6.6 0 a3.3 3.3 0 1 0 -6.6 0zM88.03 401.76L86.72 403.08L99.02 415.38L100.34 414.06zM96.38 414.72 a3.3 3.3 0 1 0 6.6 0 a3.3 3.3 0 1 0 -6.6 0zM76.69 409.77L74.97 410.49L76.99 415.37L78.71 414.65zM74.55 415.01 a3.3 3.3 0 1 0 6.6 0 a3.3 3.3 0 1 0 -6.6 0zM63.14 412.84L61.28 412.84L61.28 423.12L63.14 423.12zM58.91 423.12 a3.3 3.3 0 1 0 6.6 0 a3.3 3.3 0 1 0 -6.6 0zM49.46 410.49L47.73 409.77L45.06 416.23L46.78 416.95zM42.62 416.59 a3.3 3.3 0 1 0 6.6 0 a3.3 3.3 0 1 0 -6.6 0zM37.71 403.08L36.39 401.76L29.46 408.69L30.78 410.01zM26.82 409.35 a3.3 3.3 0 1 0 6.6 0 a3.3 3.3 0 1 0 -6.6 0zM29.69 391.73L28.98 390.01L13.11 396.59L13.82 398.31zM10.16 397.45 a3.3 3.3 0 1 0 6.6 0 a3.3 3.3 0 1 0 -6.6 0zM26.63 378.19L26.63 376.32L15.69 376.32L15.69 378.19zM12.39 377.25 a3.3 3.3 0 1 0 6.6 0 a3.3 3.3 0 1 0 -6.6 0zM28.98 364.5L29.69 362.78L15.28 356.81L14.57 358.53zM11.62 357.67 a3.3 3.3 0 1 0 6.6 0 a3.3 3.3 0 1 0 -6.6 0zM36.39 352.75L37.71 351.43L33.12 346.84L31.8 348.16zM29.16 347.5 a3.3 3.3 0 1 0 6.6 0 a3.3 3.3 0 1 0 -6.6 0zM47.73 344.74L49.46 344.02L43.46 329.55L41.74 330.27zM39.3 329.91 a3.3 3.3 0 1 0 6.6 0 a3.3 3.3 0 1 0 -6.6 0zM61.28 341.67L63.14 341.67L63.14 327.51L61.28 327.51zM58.91 327.51 a3.3 3.3 0 1 0 6.6 0 a3.3 3.3 0 1 0 -6.6 0zM74.97 344.02L76.69 344.74L81 334.33L79.28 333.62zM76.84 333.98 a3.3 3.3 0 1 0 6.6 0 a3.3 3.3 0 1 0 -6.6 0zM86.72 351.43L88.03 352.75L94.31 346.48L92.99 345.16zM90.35 345.82 a3.3 3.3 0 1 0 6.6 0 a3.3 3.3 0 1 0 -6.6 0zM94.73 362.78L95.45 364.5L102.27 361.67L101.56 359.95zM98.62 360.81 a3.3 3.3 0 1 0 6.6 0 a3.3 3.3 0 1 0 -6.6 0zM26.61 377.25 a35.6 35.6 0 1 0 71.2 0 a35.6 35.6 0 1 0 -71.2 0z" fill="rgba(72, 219, 117, 1)"></path><path d="M96.5 367.7 A34.5968 34.5968 0 0 1 53.41 411.75M53.41 411.75 A71.1936 71.1936 0 0 0 96.5 367.7" fill="#26c356" fill-rule="nonzero"></path><path d="M89.43 389.78 a2.85 2.85 0 1 0 5.7 0 a2.85 2.85 0 1 0 -5.7 0zM27.41 382.9 a3.56 3.56 0 1 0 7.12 0 a3.56 3.56 0 1 0 -7.12 0zM62.05 387.64 a7.12 7.12 0 1 0 14.24 0 a7.12 7.12 0 1 0 -14.24 0zM40.91 404.04 a2.85 2.85 0 1 0 5.7 0 a2.85 2.85 0 1 0 -5.7 0zM34.93 367.4 a7.12 7.12 0 1 0 14.24 0 a7.12 7.12 0 1 0 -14.24 0zM40.76 387.8 a2.49 2.49 0 1 0 4.98 0 a2.49 2.49 0 1 0 -4.98 0zM47.13 347.86 a3.92 3.92 0 1 0 7.84 0 a3.92 3.92 0 1 0 -7.84 0zM79.07 358.97 a6.05 6.05 0 1 0 12.1 0 a6.05 6.05 0 1 0 -12.1 0zM69.3 361.65 a1.42 1.42 0 1 0 2.84 0 a1.42 1.42 0 1 0 -2.84 0zM59.76 404.58 a3.56 3.56 0 1 0 7.12 0 a3.56 3.56 0 1 0 -7.12 0z" fill="#26c356" fill-rule="nonzero"></path><path d="M296.7 100.97L296.7 104.23L325.63 104.23L325.63 100.97zM319.85 102.6 a5.78 5.78 0 1 0 11.56 0 a5.78 5.78 0 1 0 -11.56 0zM292.58 124.93L291.33 127.94L317 138.57L318.25 135.56zM311.84 137.06 a5.78 5.78 0 1 0 11.56 0 a5.78 5.78 0 1 0 -11.56 0zM279.61 145.48L277.3 147.79L296.14 166.63L298.45 164.32zM291.51 165.47 a5.78 5.78 0 1 0 11.56 0 a5.78 5.78 0 1 0 -11.56 0zM259.76 159.51L256.75 160.76L266.96 185.41L269.97 184.16zM262.68 184.78 a5.78 5.78 0 1 0 11.56 0 a5.78 5.78 0 1 0 -11.56 0zM236.05 164.88L232.79 164.88L232.79 185.04L236.05 185.04zM228.64 185.04 a5.78 5.78 0 1 0 11.56 0 a5.78 5.78 0 1 0 -11.56 0zM212.1 160.76L209.09 159.51L202.62 175.12L205.64 176.36zM198.35 175.74 a5.78 5.78 0 1 0 11.56 0 a5.78 5.78 0 1 0 -11.56 0zM191.54 147.79L189.24 145.48L182.9 151.82L185.21 154.13zM178.27 152.97 a5.78 5.78 0 1 0 11.56 0 a5.78 5.78 0 1 0 -11.56 0zM177.51 127.94L176.27 124.93L156.54 133.1L157.79 136.11zM151.39 134.6 a5.78 5.78 0 1 0 11.56 0 a5.78 5.78 0 1 0 -11.56 0zM172.15 104.23L172.15 100.97L151.84 100.97L151.84 104.23zM146.06 102.6 a5.78 5.78 0 1 0 11.56 0 a5.78 5.78 0 1 0 -11.56 0zM176.27 80.28L177.51 77.27L160.01 70.01L158.76 73.03zM153.6 71.52 a5.78 5.78 0 1 0 11.56 0 a5.78 5.78 0 1 0 -11.56 0zM189.24 59.72L191.54 57.42L175.1 40.97L172.79 43.28zM168.16 42.12 a5.78 5.78 0 1 0 11.56 0 a5.78 5.78 0 1 0 -11.56 0zM209.09 45.69L212.1 44.45L202.8 21.99L199.78 23.23zM195.51 22.61 a5.78 5.78 0 1 0 11.56 0 a5.78 5.78 0 1 0 -11.56 0zM232.79 40.33L236.05 40.33L236.05 16.07L232.79 16.07zM228.64 16.07 a5.78 5.78 0 1 0 11.56 0 a5.78 5.78 0 1 0 -11.56 0zM256.75 44.45L259.76 45.69L263.47 36.75L260.45 35.5zM256.18 36.13 a5.78 5.78 0 1 0 11.56 0 a5.78 5.78 0 1 0 -11.56 0zM277.3 57.42L279.61 59.72L288.46 50.88L286.15 48.57zM281.52 49.72 a5.78 5.78 0 1 0 11.56 0 a5.78 5.78 0 1 0 -11.56 0zM291.33 77.27L292.58 80.28L319.14 69.28L317.89 66.26zM312.74 67.77 a5.78 5.78 0 1 0 11.56 0 a5.78 5.78 0 1 0 -11.56 0zM172.13 102.6 a62.29 62.29 0 1 0 124.58 0 a62.29 62.29 0 1 0 -124.58 0z" fill="rgba(72, 219, 117, 1)"></path><path d="M178.12 75.94 A61.294399999999996 61.294399999999996 0 0 1 285.59 67.07M285.59 67.07 A124.58879999999999 124.58879999999999 0 0 0 178.12 75.94" fill="#26c356" fill-rule="nonzero"></path><path d="M266.63 85.64 a12.46 12.46 0 1 0 24.92 0 a12.46 12.46 0 1 0 -24.92 0zM210.42 153.91 a8.72 8.72 0 1 0 17.44 0 a8.72 8.72 0 1 0 -17.44 0zM196.93 70.36 a12.46 12.46 0 1 0 24.92 0 a12.46 12.46 0 1 0 -24.92 0zM181.67 94.91 a6.85 6.85 0 1 0 13.7 0 a6.85 6.85 0 1 0 -13.7 0zM275.57 124.99 a8.1 8.1 0 1 0 16.2 0 a8.1 8.1 0 1 0 -16.2 0zM230.53 54.49 a9.97 9.97 0 1 0 19.94 0 a9.97 9.97 0 1 0 -19.94 0zM213.19 100.03 a6.23 6.23 0 1 0 12.46 0 a6.23 6.23 0 1 0 -12.46 0zM217.54 125.17 a6.23 6.23 0 1 0 12.46 0 a6.23 6.23 0 1 0 -12.46 0zM250.81 150.61 a8.1 8.1 0 1 0 16.2 0 a8.1 8.1 0 1 0 -16.2 0zM197.97 131.39 a3.74 3.74 0 1 0 7.48 0 a3.74 3.74 0 1 0 -7.48 0z" fill="#26c356" fill-rule="nonzero"></path><path d="M341.74 367.04L341.74 369.84L367.37 369.84L367.37 367.04zM362.42 368.44 a4.95 4.95 0 1 0 9.9 0 a4.95 4.95 0 1 0 -9.9 0zM338.21 387.58L337.14 390.16L354.92 397.53L355.99 394.94zM350.51 396.24 a4.95 4.95 0 1 0 9.9 0 a4.95 4.95 0 1 0 -9.9 0zM327.09 405.2L325.11 407.17L334.11 416.17L336.09 414.19zM330.15 415.18 a4.95 4.95 0 1 0 9.9 0 a4.95 4.95 0 1 0 -9.9 0zM310.08 417.22L307.5 418.29L317.2 441.72L319.78 440.65zM313.54 441.19 a4.95 4.95 0 1 0 9.9 0 a4.95 4.95 0 1 0 -9.9 0zM289.76 421.82L286.96 421.82L286.96 429.88L289.76 429.88zM283.41 429.88 a4.95 4.95 0 1 0 9.9 0 a4.95 4.95 0 1 0 -9.9 0zM269.22 418.29L266.64 417.22L258.45 436.99L261.04 438.06zM254.79 437.53 a4.95 4.95 0 1 0 9.9 0 a4.95 4.95 0 1 0 -9.9 0zM251.61 407.17L249.63 405.2L241.07 413.75L243.05 415.73zM237.11 414.74 a4.95 4.95 0 1 0 9.9 0 a4.95 4.95 0 1 0 -9.9 0zM239.58 390.16L238.51 387.58L226.93 392.38L228 394.96zM222.51 393.67 a4.95 4.95 0 1 0 9.9 0 a4.95 4.95 0 1 0 -9.9 0zM234.98 369.84L234.98 367.04L226.86 367.04L226.86 369.84zM221.91 368.44 a4.95 4.95 0 1 0 9.9 0 a4.95 4.95 0 1 0 -9.9 0zM238.51 349.31L239.58 346.72L221.15 339.09L220.08 341.67zM215.66 340.38 a4.95 4.95 0 1 0 9.9 0 a4.95 4.95 0 1 0 -9.9 0zM249.63 331.69L251.61 329.71L236.9 315L234.92 316.98zM230.96 315.99 a4.95 4.95 0 1 0 9.9 0 a4.95 4.95 0 1 0 -9.9 0zM266.64 319.66L269.22 318.59L260.29 297.02L257.71 298.09zM254.05 297.56 a4.95 4.95 0 1 0 9.9 0 a4.95 4.95 0 1 0 -9.9 0zM286.96 315.07L289.76 315.07L289.76 297.52L286.96 297.52zM283.41 297.52 a4.95 4.95 0 1 0 9.9 0 a4.95 4.95 0 1 0 -9.9 0zM307.5 318.59L310.08 319.66L316.69 303.7L314.11 302.63zM310.45 303.16 a4.95 4.95 0 1 0 9.9 0 a4.95 4.95 0 1 0 -9.9 0zM325.11 329.71L327.09 331.69L338.04 320.73L336.07 318.76zM332.11 319.75 a4.95 4.95 0 1 0 9.9 0 a4.95 4.95 0 1 0 -9.9 0zM337.14 346.72L338.21 349.31L354.17 342.69L353.1 340.11zM348.69 341.4 a4.95 4.95 0 1 0 9.9 0 a4.95 4.95 0 1 0 -9.9 0zM234.96 368.44 a53.4 53.4 0 1 0 106.8 0 a53.4 53.4 0 1 0 -106.8 0z" fill="rgba(72, 219, 117, 1)"></path><path d="M237 353.84 A52.3952 52.3952 0 0 1 326.61 331.18M326.61 331.18 A106.7904 106.7904 0 0 0 237 353.84" fill="#26c356" fill-rule="nonzero"></path><path d="M235.23 365.61 a4.27 4.27 0 1 0 8.54 0 a4.27 4.27 0 1 0 -8.54 0zM277.96 341.36 a10.68 10.68 0 1 0 21.36 0 a10.68 10.68 0 1 0 -21.36 0zM288.07 367.71 a5.34 5.34 0 1 0 10.68 0 a5.34 5.34 0 1 0 -10.68 0zM249.22 344.85 a9.08 9.08 0 1 0 18.16 0 a9.08 9.08 0 1 0 -18.16 0zM323.5 359.59 a8.54 8.54 0 1 0 17.08 0 a8.54 8.54 0 1 0 -17.08 0zM243.59 395.4 a6.94 6.94 0 1 0 13.88 0 a6.94 6.94 0 1 0 -13.88 0zM270.73 389.34 a9.08 9.08 0 1 0 18.16 0 a9.08 9.08 0 1 0 -18.16 0zM268.29 366.73 a3.74 3.74 0 1 0 7.48 0 a3.74 3.74 0 1 0 -7.48 0zM299.18 396.29 a7.48 7.48 0 1 0 14.96 0 a7.48 7.48 0 1 0 -14.96 0zM310.13 342.65 a3.74 3.74 0 1 0 7.48 0 a3.74 3.74 0 1 0 -7.48 0z" fill="#26c356" fill-rule="nonzero"></path><path d="M1294.73 97.91L1294.73 100.7L1311.9 100.7L1311.9 97.91zM1306.95 99.31 a4.95 4.95 0 1 0 9.9 0 a4.95 4.95 0 1 0 -9.9 0zM1291.2 118.44L1290.13 121.02L1298.26 124.39L1299.33 121.81zM1293.85 123.1 a4.95 4.95 0 1 0 9.9 0 a4.95 4.95 0 1 0 -9.9 0zM1280.09 136.06L1278.11 138.04L1286.6 146.52L1288.57 144.55zM1282.63 145.54 a4.95 4.95 0 1 0 9.9 0 a4.95 4.95 0 1 0 -9.9 0zM1263.07 148.09L1260.49 149.16L1266.17 162.87L1268.75 161.8zM1262.51 162.33 a4.95 4.95 0 1 0 9.9 0 a4.95 4.95 0 1 0 -9.9 0zM1242.75 152.68L1239.96 152.68L1239.96 170.93L1242.75 170.93zM1236.41 170.93 a4.95 4.95 0 1 0 9.9 0 a4.95 4.95 0 1 0 -9.9 0zM1222.22 149.16L1219.64 148.09L1215.57 157.91L1218.15 158.98zM1211.91 158.44 a4.95 4.95 0 1 0 9.9 0 a4.95 4.95 0 1 0 -9.9 0zM1204.6 138.04L1202.62 136.06L1185.56 153.12L1187.54 155.1zM1181.6 154.11 a4.95 4.95 0 1 0 9.9 0 a4.95 4.95 0 1 0 -9.9 0zM1192.58 121.02L1191.51 118.44L1183.73 121.66L1184.8 124.25zM1179.31 122.96 a4.95 4.95 0 1 0 9.9 0 a4.95 4.95 0 1 0 -9.9 0zM1187.98 100.7L1187.98 97.91L1164.24 97.91L1164.24 100.7zM1159.29 99.31 a4.95 4.95 0 1 0 9.9 0 a4.95 4.95 0 1 0 -9.9 0zM1191.51 80.17L1192.58 77.59L1178.66 71.83L1177.59 74.41zM1173.18 73.12 a4.95 4.95 0 1 0 9.9 0 a4.95 4.95 0 1 0 -9.9 0zM1202.62 62.55L1204.6 60.58L1190.84 46.81L1188.86 48.79zM1184.9 47.8 a4.95 4.95 0 1 0 9.9 0 a4.95 4.95 0 1 0 -9.9 0zM1219.64 50.53L1222.22 49.46L1219.56 43.05L1216.98 44.12zM1213.32 43.58 a4.95 4.95 0 1 0 9.9 0 a4.95 4.95 0 1 0 -9.9 0zM1239.96 45.93L1242.75 45.93L1242.75 37.97L1239.96 37.97zM1236.41 37.97 a4.95 4.95 0 1 0 9.9 0 a4.95 4.95 0 1 0 -9.9 0zM1260.49 49.46L1263.07 50.53L1267.51 39.82L1264.93 38.75zM1261.27 39.29 a4.95 4.95 0 1 0 9.9 0 a4.95 4.95 0 1 0 -9.9 0zM1278.11 60.58L1280.09 62.55L1292.48 50.16L1290.5 48.19zM1286.54 49.18 a4.95 4.95 0 1 0 9.9 0 a4.95 4.95 0 1 0 -9.9 0zM1290.13 77.59L1291.2 80.17L1301.71 75.82L1300.64 73.24zM1296.22 74.53 a4.95 4.95 0 1 0 9.9 0 a4.95 4.95 0 1 0 -9.9 0zM1187.96 99.31 a53.4 53.4 0 1 0 106.8 0 a53.4 53.4 0 1 0 -106.8 0z" fill="rgba(72, 219, 117, 1)"></path><path d="M1277.14 138.94 A52.3952 52.3952 0 0 1 1189.17 110.59M1189.17 110.59 A106.7904 106.7904 0 0 0 1277.14 138.94" fill="#26c356" fill-rule="nonzero"></path><path d="M1290.17 99.25 a2.14 2.14 0 1 0 4.28 0 a2.14 2.14 0 1 0 -4.28 0zM1232.3 117.77 a10.68 10.68 0 1 0 21.36 0 a10.68 10.68 0 1 0 -21.36 0zM1229.09 95.43 a3.2 3.2 0 1 0 6.4 0 a3.2 3.2 0 1 0 -6.4 0zM1190.07 112.3 a6.41 6.41 0 1 0 12.82 0 a6.41 6.41 0 1 0 -12.82 0zM1258.79 86.73 a10.68 10.68 0 1 0 21.36 0 a10.68 10.68 0 1 0 -21.36 0zM1220.24 70.44 a10.68 10.68 0 1 0 21.36 0 a10.68 10.68 0 1 0 -21.36 0zM1273.16 116.36 a7.48 7.48 0 1 0 14.96 0 a7.48 7.48 0 1 0 -14.96 0zM1218.08 145.12 a3.2 3.2 0 1 0 6.4 0 a3.2 3.2 0 1 0 -6.4 0zM1195.26 74.46 a5.34 5.34 0 1 0 10.68 0 a5.34 5.34 0 1 0 -10.68 0zM1256.49 136.34 a3.2 3.2 0 1 0 6.4 0 a3.2 3.2 0 1 0 -6.4 0z" fill="#26c356" fill-rule="nonzero"></path><path d="M1384.45 320.6L1384.45 322.93L1390.9 322.93L1390.9 320.6zM1386.77 321.76 a4.13 4.13 0 1 0 8.26 0 a4.13 4.13 0 1 0 -8.26 0zM1381.51 337.71L1380.62 339.86L1399.89 347.84L1400.78 345.69zM1396.21 346.77 a4.13 4.13 0 1 0 8.26 0 a4.13 4.13 0 1 0 -8.26 0zM1372.25 352.39L1370.6 354.04L1381.41 364.85L1383.06 363.2zM1378.1 364.03 a4.13 4.13 0 1 0 8.26 0 a4.13 4.13 0 1 0 -8.26 0zM1358.07 362.41L1355.92 363.3L1363.71 382.11L1365.86 381.22zM1360.65 381.67 a4.13 4.13 0 1 0 8.26 0 a4.13 4.13 0 1 0 -8.26 0zM1341.14 366.24L1338.81 366.24L1338.81 388.13L1341.14 388.13zM1335.84 388.13 a4.13 4.13 0 1 0 8.26 0 a4.13 4.13 0 1 0 -8.26 0zM1324.02 363.3L1321.87 362.41L1318.65 370.2L1320.8 371.09zM1315.59 370.65 a4.13 4.13 0 1 0 8.26 0 a4.13 4.13 0 1 0 -8.26 0zM1309.34 354.04L1307.69 352.39L1301.21 358.88L1302.86 360.52zM1297.9 359.7 a4.13 4.13 0 1 0 8.26 0 a4.13 4.13 0 1 0 -8.26 0zM1299.32 339.86L1298.43 337.71L1284.2 343.6L1285.09 345.76zM1280.52 344.68 a4.13 4.13 0 1 0 8.26 0 a4.13 4.13 0 1 0 -8.26 0zM1295.49 322.93L1295.49 320.6L1279.6 320.6L1279.6 322.93zM1275.47 321.76 a4.13 4.13 0 1 0 8.26 0 a4.13 4.13 0 1 0 -8.26 0zM1298.43 305.82L1299.32 303.67L1289.08 299.42L1288.18 301.57zM1284.5 300.5 a4.13 4.13 0 1 0 8.26 0 a4.13 4.13 0 1 0 -8.26 0zM1307.69 291.13L1309.34 289.49L1299.17 279.32L1297.53 280.97zM1294.22 280.14 a4.13 4.13 0 1 0 8.26 0 a4.13 4.13 0 1 0 -8.26 0zM1321.87 281.11L1324.02 280.22L1317.79 265.17L1315.64 266.06zM1312.58 265.62 a4.13 4.13 0 1 0 8.26 0 a4.13 4.13 0 1 0 -8.26 0zM1338.81 277.28L1341.14 277.28L1341.14 257.42L1338.81 257.42zM1335.84 257.42 a4.13 4.13 0 1 0 8.26 0 a4.13 4.13 0 1 0 -8.26 0zM1355.92 280.22L1358.07 281.11L1360.69 274.8L1358.53 273.9zM1355.48 274.35 a4.13 4.13 0 1 0 8.26 0 a4.13 4.13 0 1 0 -8.26 0zM1370.6 289.49L1372.25 291.13L1386.78 276.6L1385.14 274.95zM1381.83 275.77 a4.13 4.13 0 1 0 8.26 0 a4.13 4.13 0 1 0 -8.26 0zM1380.62 303.67L1381.51 305.82L1388.38 302.97L1387.49 300.82zM1383.81 301.89 a4.13 4.13 0 1 0 8.26 0 a4.13 4.13 0 1 0 -8.26 0zM1295.47 321.76 a44.5 44.5 0 1 0 89 0 a44.5 44.5 0 1 0 -89 0z" fill="rgba(72, 219, 117, 1)"></path><path d="M1323.69 363.17 A43.496 43.496 0 0 1 1312.17 287.02M1312.17 287.02 A88.992 88.992 0 0 0 1323.69 363.17" fill="#26c356" fill-rule="nonzero"></path><path d="M1297 323.88 a8.9 8.9 0 1 0 17.8 0 a8.9 8.9 0 1 0 -17.8 0zM1373.05 335.25 a4.45 4.45 0 1 0 8.9 0 a4.45 4.45 0 1 0 -8.9 0zM1316.11 296.16 a8.9 8.9 0 1 0 17.8 0 a8.9 8.9 0 1 0 -17.8 0zM1343.71 288.67 a8.9 8.9 0 1 0 17.8 0 a8.9 8.9 0 1 0 -17.8 0zM1342.39 320.58 a8.9 8.9 0 1 0 17.8 0 a8.9 8.9 0 1 0 -17.8 0zM1332.36 349.98 a8.9 8.9 0 1 0 17.8 0 a8.9 8.9 0 1 0 -17.8 0zM1365.68 308.65 a3.11 3.11 0 1 0 6.22 0 a3.11 3.11 0 1 0 -6.22 0zM1330.83 332.36 a1.78 1.78 0 1 0 3.56 0 a1.78 1.78 0 1 0 -3.56 0zM1358.44 343.8 a3.11 3.11 0 1 0 6.22 0 a3.11 3.11 0 1 0 -6.22 0zM1316.89 344.59 a3.56 3.56 0 1 0 7.12 0 a3.56 3.56 0 1 0 -7.12 0z" fill="#26c356" fill-rule="nonzero"></path><path d="M544.61 460.39L544.61 462.72L561.19 462.72L561.19 460.39zM557.06 461.56 a4.13 4.13 0 1 0 8.26 0 a4.13 4.13 0 1 0 -8.26 0zM541.67 477.5L540.78 479.66L555.6 485.79L556.49 483.64zM551.92 484.72 a4.13 4.13 0 1 0 8.26 0 a4.13 4.13 0 1 0 -8.26 0zM532.41 492.19L530.76 493.83L537.24 500.32L538.89 498.67zM533.94 499.5 a4.13 4.13 0 1 0 8.26 0 a4.13 4.13 0 1 0 -8.26 0zM518.23 502.21L516.08 503.1L520.88 514.68L523.03 513.79zM517.82 514.24 a4.13 4.13 0 1 0 8.26 0 a4.13 4.13 0 1 0 -8.26 0zM501.3 506.04L498.97 506.04L498.97 521.94L501.3 521.94zM496 521.94 a4.13 4.13 0 1 0 8.26 0 a4.13 4.13 0 1 0 -8.26 0zM484.19 503.1L482.03 502.21L477.86 512.28L480.01 513.17zM474.81 512.72 a4.13 4.13 0 1 0 8.26 0 a4.13 4.13 0 1 0 -8.26 0zM469.5 493.83L467.86 492.19L459.33 500.72L460.97 502.36zM456.02 501.54 a4.13 4.13 0 1 0 8.26 0 a4.13 4.13 0 1 0 -8.26 0zM459.48 479.66L458.59 477.5L448.5 481.68L449.39 483.84zM444.82 482.76 a4.13 4.13 0 1 0 8.26 0 a4.13 4.13 0 1 0 -8.26 0zM455.65 462.72L455.65 460.39L441.3 460.39L441.3 462.72zM437.17 461.56 a4.13 4.13 0 1 0 8.26 0 a4.13 4.13 0 1 0 -8.26 0zM458.59 445.61L459.48 443.46L449.41 439.29L448.52 441.44zM444.84 440.37 a4.13 4.13 0 1 0 8.26 0 a4.13 4.13 0 1 0 -8.26 0zM467.86 430.93L469.5 429.28L462.36 422.14L460.71 423.79zM457.41 422.96 a4.13 4.13 0 1 0 8.26 0 a4.13 4.13 0 1 0 -8.26 0zM482.03 420.91L484.19 420.02L477.81 404.64L475.66 405.53zM472.61 405.08 a4.13 4.13 0 1 0 8.26 0 a4.13 4.13 0 1 0 -8.26 0zM498.97 417.08L501.3 417.08L501.3 399.12L498.97 399.12zM496 399.12 a4.13 4.13 0 1 0 8.26 0 a4.13 4.13 0 1 0 -8.26 0zM516.08 420.02L518.23 420.91L521.18 413.78L519.03 412.89zM515.98 413.33 a4.13 4.13 0 1 0 8.26 0 a4.13 4.13 0 1 0 -8.26 0zM530.76 429.28L532.41 430.93L544.87 418.46L543.23 416.82zM539.92 417.64 a4.13 4.13 0 1 0 8.26 0 a4.13 4.13 0 1 0 -8.26 0zM540.78 443.46L541.67 445.61L559.37 438.28L558.48 436.13zM554.8 437.2 a4.13 4.13 0 1 0 8.26 0 a4.13 4.13 0 1 0 -8.26 0zM455.63 461.56 a44.5 44.5 0 1 0 89 0 a44.5 44.5 0 1 0 -89 0z" fill="rgba(72, 219, 117, 1)"></path><path d="M526.12 425.44 A43.496 43.496 0 0 1 518.5 502.09M518.5 502.09 A88.992 88.992 0 0 0 526.12 425.44" fill="#26c356" fill-rule="nonzero"></path><path d="M513.09 486.17 a8.9 8.9 0 1 0 17.8 0 a8.9 8.9 0 1 0 -17.8 0zM519.58 462.06 a6.23 6.23 0 1 0 12.46 0 a6.23 6.23 0 1 0 -12.46 0zM478.5 498.81 a2.67 2.67 0 1 0 5.34 0 a2.67 2.67 0 1 0 -5.34 0zM469.92 436.36 a8.9 8.9 0 1 0 17.8 0 a8.9 8.9 0 1 0 -17.8 0zM496.98 436.53 a2.67 2.67 0 1 0 5.34 0 a2.67 2.67 0 1 0 -5.34 0zM487.99 486.18 a7.56 7.56 0 1 0 15.12 0 a7.56 7.56 0 1 0 -15.12 0zM455.93 462.61 a8.01 8.01 0 1 0 16.02 0 a8.01 8.01 0 1 0 -16.02 0zM503.75 466.73 a3.56 3.56 0 1 0 7.12 0 a3.56 3.56 0 1 0 -7.12 0zM513.9 437.93 a8.9 8.9 0 1 0 17.8 0 a8.9 8.9 0 1 0 -17.8 0zM462.56 482.51 a2.67 2.67 0 1 0 5.34 0 a2.67 2.67 0 1 0 -5.34 0z" fill="#26c356" fill-rule="nonzero"></path><path d="M898.54 68.58L898.54 70.44L904.79 70.44L904.79 68.58zM901.49 69.51 a3.3 3.3 0 1 0 6.6 0 a3.3 3.3 0 1 0 -6.6 0zM896.19 82.26L895.47 83.99L911.59 90.66L912.3 88.94zM908.64 89.8 a3.3 3.3 0 1 0 6.6 0 a3.3 3.3 0 1 0 -6.6 0zM888.77 94.01L887.46 95.33L891.71 99.58L893.02 98.26zM889.07 98.92 a3.3 3.3 0 1 0 6.6 0 a3.3 3.3 0 1 0 -6.6 0zM877.43 102.03L875.71 102.74L880.88 115.21L882.6 114.5zM878.44 114.86 a3.3 3.3 0 1 0 6.6 0 a3.3 3.3 0 1 0 -6.6 0zM863.89 105.09L862.02 105.09L862.02 109.64L863.89 109.64zM859.65 109.64 a3.3 3.3 0 1 0 6.6 0 a3.3 3.3 0 1 0 -6.6 0zM850.2 102.74L848.47 102.03L842.85 115.62L844.57 116.33zM840.41 115.97 a3.3 3.3 0 1 0 6.6 0 a3.3 3.3 0 1 0 -6.6 0zM838.45 95.33L837.13 94.01L833.05 98.09L834.37 99.41zM830.41 98.75 a3.3 3.3 0 1 0 6.6 0 a3.3 3.3 0 1 0 -6.6 0zM830.43 83.99L829.72 82.26L813.93 88.8L814.65 90.53zM810.99 89.67 a3.3 3.3 0 1 0 6.6 0 a3.3 3.3 0 1 0 -6.6 0zM827.37 70.44L827.37 68.58L816.3 68.58L816.3 70.44zM813 69.51 a3.3 3.3 0 1 0 6.6 0 a3.3 3.3 0 1 0 -6.6 0zM829.72 56.75L830.43 55.03L818.63 50.14L817.91 51.86zM814.97 51 a3.3 3.3 0 1 0 6.6 0 a3.3 3.3 0 1 0 -6.6 0zM837.13 45L838.45 43.69L831.97 37.2L830.65 38.52zM828.01 37.86 a3.3 3.3 0 1 0 6.6 0 a3.3 3.3 0 1 0 -6.6 0zM848.47 36.99L850.2 36.27L847.89 30.69L846.16 31.41zM843.72 31.05 a3.3 3.3 0 1 0 6.6 0 a3.3 3.3 0 1 0 -6.6 0zM862.02 33.92L863.89 33.92L863.89 22.44L862.02 22.44zM859.65 22.44 a3.3 3.3 0 1 0 6.6 0 a3.3 3.3 0 1 0 -6.6 0zM875.71 36.27L877.43 36.99L883.36 22.67L881.64 21.95zM879.2 22.31 a3.3 3.3 0 1 0 6.6 0 a3.3 3.3 0 1 0 -6.6 0zM887.46 43.69L888.77 45L896.4 37.37L895.09 36.06zM892.45 36.72 a3.3 3.3 0 1 0 6.6 0 a3.3 3.3 0 1 0 -6.6 0zM895.47 55.03L896.19 56.75L909 51.44L908.29 49.72zM905.34 50.58 a3.3 3.3 0 1 0 6.6 0 a3.3 3.3 0 1 0 -6.6 0zM827.35 69.51 a35.6 35.6 0 1 0 71.2 0 a35.6 35.6 0 1 0 -71.2 0z" fill="rgba(72, 219, 117, 1)"></path><path d="M840.35 97.01 A34.5968 34.5968 0 0 1 850.37 36.21M850.37 36.21 A71.1936 71.1936 0 0 0 840.35 97.01" fill="#26c356" fill-rule="nonzero"></path><path d="M861.41 60.79 a7.12 7.12 0 1 0 14.24 0 a7.12 7.12 0 1 0 -14.24 0zM877.07 83.59 a7.12 7.12 0 1 0 14.24 0 a7.12 7.12 0 1 0 -14.24 0zM849.05 95.88 a7.12 7.12 0 1 0 14.24 0 a7.12 7.12 0 1 0 -14.24 0zM888.01 64.3 a4.98 4.98 0 1 0 9.96 0 a4.98 4.98 0 1 0 -9.96 0zM830.72 81.8 a7.12 7.12 0 1 0 14.24 0 a7.12 7.12 0 1 0 -14.24 0zM870.6 97.95 a1.78 1.78 0 1 0 3.56 0 a1.78 1.78 0 1 0 -3.56 0zM840.19 63.12 a6.05 6.05 0 1 0 12.1 0 a6.05 6.05 0 1 0 -12.1 0zM839.71 48.92 a1.78 1.78 0 1 0 3.56 0 a1.78 1.78 0 1 0 -3.56 0zM851.52 48.73 a3.56 3.56 0 1 0 7.12 0 a3.56 3.56 0 1 0 -7.12 0zM881.4 46.49 a3.56 3.56 0 1 0 7.12 0 a3.56 3.56 0 1 0 -7.12 0z" fill="#26c356" fill-rule="nonzero"></path></g><defs><mask id="SvgjsMask1002"><rect width="1440" height="560" fill="#ffffff"></rect></mask></defs></svg>